<svg xmlns="http://www.w3.org/2000/svg" width="1280" height="780" viewBox="0 0 1280 780">
<defs>
  <linearGradient id="bg" x1="0" x2="1" y1="0" y2="1">
    <stop offset="0%" stop-color="#07111f"/>
    <stop offset="100%" stop-color="#10263f"/>
  </linearGradient>
  <linearGradient id="forecastLine" x1="0" x2="1" y1="0" y2="0">
    <stop offset="0%" stop-color="#4df0c7"/>
    <stop offset="100%" stop-color="#6bf1ff"/>
  </linearGradient>
  <linearGradient id="fillLine" x1="0" x2="1" y1="0" y2="0">
    <stop offset="0%" stop-color="#ffaf45"/>
    <stop offset="100%" stop-color="#ffd36a"/>
  </linearGradient>
</defs>
<rect width="1280" height="780" fill="url(#bg)"/>
<circle cx="1130" cy="90" r="160" fill="#18314d" opacity="0.35"/>
<circle cx="180" cy="660" r="120" fill="#0c3b49" opacity="0.22"/>
<text x="80" y="78" font-family="'Trebuchet MS','Segoe UI',sans-serif" font-size="34" font-weight="700" fill="#f7fafc">BTC5 Public Improvement Velocity</text>
<text x="80" y="116" font-family="'Trebuchet MS','Segoe UI',sans-serif" font-size="17" fill="#bfd0ea">Generated 2026-03-27 00:47 UTC from runtime truth and the freshest public BTC5 forecast artifact.</text>
<rect x="900" y="150" width="320" height="420" rx="24" fill="#0d1b2e" opacity="0.92" stroke="#27496d"/>
<line x1="100" y1="170.00" x2="860" y2="170.00" stroke="#28425e" stroke-width="1"/>
<line x1="100" y1="260.00" x2="860" y2="260.00" stroke="#28425e" stroke-width="1"/>
<line x1="100" y1="350.00" x2="860" y2="350.00" stroke="#28425e" stroke-width="1"/>
<line x1="100" y1="440.00" x2="860" y2="440.00" stroke="#28425e" stroke-width="1"/>
<line x1="100" y1="530.00" x2="860" y2="530.00" stroke="#28425e" stroke-width="1"/>
<rect x="100" y="170" width="760" height="360" rx="18" fill="#081423" opacity="0.45" stroke="#29405d"/>
<polyline points="100.00,360.78 100.67,362.21 100.95,351.98 102.91,299.80 103.70,289.99 133.15,309.32 138.18,170.00 138.53,444.55 140.03,465.42 860.00,530.00" fill="none" stroke="url(#forecastLine)" stroke-width="4" stroke-linecap="round" stroke-linejoin="round"/>
<circle cx="100.00" cy="360.78" r="6" fill="#07111f" stroke="#72fff0" stroke-width="3"/>
<circle cx="100.67" cy="362.21" r="6" fill="#07111f" stroke="#72fff0" stroke-width="3"/>
<circle cx="100.95" cy="351.98" r="6" fill="#07111f" stroke="#72fff0" stroke-width="3"/>
<circle cx="102.91" cy="299.80" r="6" fill="#07111f" stroke="#72fff0" stroke-width="3"/>
<circle cx="103.70" cy="289.99" r="6" fill="#07111f" stroke="#72fff0" stroke-width="3"/>
<circle cx="133.15" cy="309.32" r="6" fill="#07111f" stroke="#72fff0" stroke-width="3"/>
<circle cx="138.18" cy="170.00" r="6" fill="#07111f" stroke="#72fff0" stroke-width="3"/>
<circle cx="138.53" cy="444.55" r="6" fill="#07111f" stroke="#72fff0" stroke-width="3"/>
<circle cx="140.03" cy="465.42" r="6" fill="#07111f" stroke="#72fff0" stroke-width="3"/>
<circle cx="860.00" cy="530.00" r="6" fill="#07111f" stroke="#72fff0" stroke-width="3"/>
<polyline points="100.00,530.00 100.67,530.00 100.95,530.00 102.91,530.00 103.70,530.00 133.15,530.00 138.18,530.00 138.53,530.00 140.03,530.00 860.00,530.00" fill="none" stroke="url(#fillLine)" stroke-width="3" stroke-dasharray="10 8" stroke-linecap="round" stroke-linejoin="round"/>
<circle cx="100.00" cy="530.00" r="4" fill="#ffcf71"/>
<circle cx="100.67" cy="530.00" r="4" fill="#ffcf71"/>
<circle cx="100.95" cy="530.00" r="4" fill="#ffcf71"/>
<circle cx="102.91" cy="530.00" r="4" fill="#ffcf71"/>
<circle cx="103.70" cy="530.00" r="4" fill="#ffcf71"/>
<circle cx="133.15" cy="530.00" r="4" fill="#ffcf71"/>
<circle cx="138.18" cy="530.00" r="4" fill="#ffcf71"/>
<circle cx="138.53" cy="530.00" r="4" fill="#ffcf71"/>
<circle cx="140.03" cy="530.00" r="4" fill="#ffcf71"/>
<circle cx="860.00" cy="530.00" r="4" fill="#ffcf71"/>
<line x1="100.00" y1="530" x2="100.00" y2="540" stroke="#89a6ca"/>
<text x="100.00" y="564" text-anchor="middle" font-family="'Trebuchet MS','Segoe UI',sans-serif" font-size="13" fill="#d7e4f5">18:44</text>
<line x1="100.67" y1="530" x2="100.67" y2="540" stroke="#89a6ca"/>
<text x="100.67" y="564" text-anchor="middle" font-family="'Trebuchet MS','Segoe UI',sans-serif" font-size="13" fill="#d7e4f5">19:05</text>
<line x1="100.95" y1="530" x2="100.95" y2="540" stroke="#89a6ca"/>
<text x="100.95" y="564" text-anchor="middle" font-family="'Trebuchet MS','Segoe UI',sans-serif" font-size="13" fill="#d7e4f5">19:15</text>
<line x1="102.91" y1="530" x2="102.91" y2="540" stroke="#89a6ca"/>
<text x="102.91" y="564" text-anchor="middle" font-family="'Trebuchet MS','Segoe UI',sans-serif" font-size="13" fill="#d7e4f5">20:19</text>
<line x1="103.70" y1="530" x2="103.70" y2="540" stroke="#89a6ca"/>
<text x="103.70" y="564" text-anchor="middle" font-family="'Trebuchet MS','Segoe UI',sans-serif" font-size="13" fill="#d7e4f5">20:44</text>
<line x1="133.15" y1="530" x2="133.15" y2="540" stroke="#89a6ca"/>
<text x="133.15" y="564" text-anchor="middle" font-family="'Trebuchet MS','Segoe UI',sans-serif" font-size="13" fill="#d7e4f5">12:44</text>
<line x1="138.18" y1="530" x2="138.18" y2="540" stroke="#89a6ca"/>
<text x="138.18" y="564" text-anchor="middle" font-family="'Trebuchet MS','Segoe UI',sans-serif" font-size="13" fill="#d7e4f5">15:29</text>
<line x1="138.53" y1="530" x2="138.53" y2="540" stroke="#89a6ca"/>
<text x="138.53" y="564" text-anchor="middle" font-family="'Trebuchet MS','Segoe UI',sans-serif" font-size="13" fill="#d7e4f5">15:40</text>
<line x1="140.03" y1="530" x2="140.03" y2="540" stroke="#89a6ca"/>
<text x="140.03" y="564" text-anchor="middle" font-family="'Trebuchet MS','Segoe UI',sans-serif" font-size="13" fill="#d7e4f5">16:29</text>
<line x1="860.00" y1="530" x2="860.00" y2="540" stroke="#89a6ca"/>
<text x="860.00" y="564" text-anchor="middle" font-family="'Trebuchet MS','Segoe UI',sans-serif" font-size="13" fill="#d7e4f5">23:44</text>
<text x="82" y="174.00" text-anchor="end" font-family="'Trebuchet MS','Segoe UI',sans-serif" font-size="13" fill="#c6dbf4">9.63M%</text>
<text x="82" y="264.00" text-anchor="end" font-family="'Trebuchet MS','Segoe UI',sans-serif" font-size="13" fill="#c6dbf4">7.22M%</text>
<text x="82" y="354.00" text-anchor="end" font-family="'Trebuchet MS','Segoe UI',sans-serif" font-size="13" fill="#c6dbf4">4.81M%</text>
<text x="82" y="444.00" text-anchor="end" font-family="'Trebuchet MS','Segoe UI',sans-serif" font-size="13" fill="#c6dbf4">2.41M%</text>
<text x="82" y="534.00" text-anchor="end" font-family="'Trebuchet MS','Segoe UI',sans-serif" font-size="13" fill="#c6dbf4">0.0%</text>
<text x="878" y="174.00" font-family="'Trebuchet MS','Segoe UI',sans-serif" font-size="13" fill="#ffd8a8">1 fills</text>
<text x="878" y="264.00" font-family="'Trebuchet MS','Segoe UI',sans-serif" font-size="13" fill="#ffd8a8">1 fills</text>
<text x="878" y="354.00" font-family="'Trebuchet MS','Segoe UI',sans-serif" font-size="13" fill="#ffd8a8">0 fills</text>
<text x="878" y="444.00" font-family="'Trebuchet MS','Segoe UI',sans-serif" font-size="13" fill="#ffd8a8">0 fills</text>
<text x="878" y="534.00" font-family="'Trebuchet MS','Segoe UI',sans-serif" font-size="13" fill="#ffd8a8">0 fills</text>
<rect x="100" y="146" width="18" height="4" rx="2" fill="#5cf2df"/>
<text x="128" y="154" font-family="'Trebuchet MS','Segoe UI',sans-serif" font-size="14" fill="#e8f2ff">Best-package forecast ARR</text>
<rect x="360" y="146" width="18" height="4" rx="2" fill="#ffc25f"/>
<text x="388" y="154" font-family="'Trebuchet MS','Segoe UI',sans-serif" font-size="14" fill="#e8f2ff">Live-filled row growth</text>
<text x="926" y="204" font-family="'Trebuchet MS','Segoe UI',sans-serif" font-size="13" fill="#91a8c7">SELECTED SOURCE</text>
<text x="926" y="226" font-family="'Trebuchet MS','Segoe UI',sans-serif" font-size="18" fill="#f8fbff">reports/btc5_autoresearch/latest.json</text>
<text x="926" y="254" font-family="'Trebuchet MS','Segoe UI',sans-serif" font-size="13" fill="#91a8c7">DEPLOY RECOMMENDATION</text>
<text x="926" y="276" font-family="'Trebuchet MS','Segoe UI',sans-serif" font-size="18" fill="#f8fbff">hold</text>
<text x="926" y="304" font-family="'Trebuchet MS','Segoe UI',sans-serif" font-size="13" fill="#91a8c7">CONFIDENCE</text>
<text x="926" y="326" font-family="'Trebuchet MS','Segoe UI',sans-serif" font-size="18" fill="#f8fbff">low</text>
<text x="926" y="354" font-family="'Trebuchet MS','Segoe UI',sans-serif" font-size="13" fill="#91a8c7">FORECAST ARR GAIN</text>
<text x="926" y="376" font-family="'Trebuchet MS','Segoe UI',sans-serif" font-size="18" fill="#f8fbff">6.64M%</text>
<text x="926" y="404" font-family="'Trebuchet MS','Segoe UI',sans-serif" font-size="13" fill="#91a8c7">CYCLES IN WINDOW</text>
<text x="926" y="426" font-family="'Trebuchet MS','Segoe UI',sans-serif" font-size="18" fill="#f8fbff">14</text>
<text x="926" y="454" font-family="'Trebuchet MS','Segoe UI',sans-serif" font-size="13" fill="#91a8c7">WINDOW</text>
<text x="926" y="476" font-family="'Trebuchet MS','Segoe UI',sans-serif" font-size="18" fill="#f8fbff">413.00h</text>
<text x="926" y="504" font-family="'Trebuchet MS','Segoe UI',sans-serif" font-size="13" fill="#91a8c7">FILL GROWTH</text>
<text x="926" y="526" font-family="'Trebuchet MS','Segoe UI',sans-serif" font-size="18" fill="#f8fbff">+0 rows</text>
<text x="926" y="554" font-family="'Trebuchet MS','Segoe UI',sans-serif" font-size="13" fill="#91a8c7">PER DAY</text>
<text x="926" y="576" font-family="'Trebuchet MS','Segoe UI',sans-serif" font-size="18" fill="#f8fbff">385.8k% / 0.0 fills</text>
<text x="926" y="604" font-family="'Trebuchet MS','Segoe UI',sans-serif" font-size="13" fill="#91a8c7">SAMPLE</text>
<text x="926" y="626" font-family="'Trebuchet MS','Segoe UI',sans-serif" font-size="18" fill="#f8fbff">47 live fills in the realized</text>
<text x="926" y="648" font-family="'Trebuchet MS','Segoe UI',sans-serif" font-size="18" fill="#f8fbff">sleeve window; 0 validation</text>
<text x="926" y="670" font-family="'Trebuchet MS','Segoe UI',sans-serif" font-size="18" fill="#f8fbff">live-filled rows in the selected</text>
<text x="926" y="692" font-family="'Trebuchet MS','Segoe UI',sans-serif" font-size="18" fill="#f8fbff">forecast; 881 observed BTC5</text>
<text x="926" y="714" font-family="'Trebuchet MS','Segoe UI',sans-serif" font-size="18" fill="#f8fbff">windows in the selected forecast</text>
<text x="926" y="736" font-family="'Trebuchet MS','Segoe UI',sans-serif" font-size="18" fill="#f8fbff">artifact</text>
<text x="80" y="630" font-family="'Trebuchet MS','Segoe UI',sans-serif" font-size="13" fill="#c3d6ee">Metric: Best-package BTC5 continuation ARR trend | Window: 2026-03-09 18:44 UTC -&gt; 2026-03-26 23:44 UTC (413.00h)</text>
<text x="80" y="650" font-family="'Trebuchet MS','Segoe UI',sans-serif" font-size="13" fill="#c3d6ee">Confidence: low | Sample: 47 live fills in the realized sleeve window; 0 validation live-filled rows in the selected</text>
<text x="80" y="670" font-family="'Trebuchet MS','Segoe UI',sans-serif" font-size="13" fill="#c3d6ee">forecast; 881 observed BTC5 windows in the selected forecast artifact | Source: reports/btc5_autoresearch/latest.json</text>
<text x="80" y="690" font-family="'Trebuchet MS','Segoe UI',sans-serif" font-size="13" fill="#c3d6ee">Source class: forecast loop history + BTC5 window rows</text>
</svg>
