<svg xmlns="http://www.w3.org/2000/svg" width="1280" height="780" viewBox="0 0 1280 780">
<defs>
  <linearGradient id="bg" x1="0" x2="1" y1="0" y2="1">
    <stop offset="0%" stop-color="#07111f"/>
    <stop offset="100%" stop-color="#10263f"/>
  </linearGradient>
  <linearGradient id="forecastLine" x1="0" x2="1" y1="0" y2="0">
    <stop offset="0%" stop-color="#4df0c7"/>
    <stop offset="100%" stop-color="#6bf1ff"/>
  </linearGradient>
  <linearGradient id="fillLine" x1="0" x2="1" y1="0" y2="0">
    <stop offset="0%" stop-color="#ffaf45"/>
    <stop offset="100%" stop-color="#ffd36a"/>
  </linearGradient>
</defs>
<rect width="1280" height="780" fill="url(#bg)"/>
<circle cx="1130" cy="90" r="160" fill="#18314d" opacity="0.35"/>
<circle cx="180" cy="660" r="120" fill="#0c3b49" opacity="0.22"/>
<text x="80" y="78" font-family="'Trebuchet MS','Segoe UI',sans-serif" font-size="34" font-weight="700" fill="#f7fafc">BTC5 Public Improvement Velocity</text>
<text x="80" y="116" font-family="'Trebuchet MS','Segoe UI',sans-serif" font-size="17" fill="#bfd0ea">Generated 2026-03-10 12:45 UTC from runtime truth and the freshest public BTC5 forecast artifact.</text>
<rect x="900" y="150" width="320" height="420" rx="24" fill="#0d1b2e" opacity="0.92" stroke="#27496d"/>
<line x1="100" y1="170.00" x2="860" y2="170.00" stroke="#28425e" stroke-width="1"/>
<line x1="100" y1="260.00" x2="860" y2="260.00" stroke="#28425e" stroke-width="1"/>
<line x1="100" y1="350.00" x2="860" y2="350.00" stroke="#28425e" stroke-width="1"/>
<line x1="100" y1="440.00" x2="860" y2="440.00" stroke="#28425e" stroke-width="1"/>
<line x1="100" y1="530.00" x2="860" y2="530.00" stroke="#28425e" stroke-width="1"/>
<rect x="100" y="170" width="760" height="360" rx="18" fill="#081423" opacity="0.45" stroke="#29405d"/>
<polyline points="100.00,522.87 115.30,530.00 121.79,478.98 166.70,218.88 184.78,170.00 860.00,266.32 860.00,266.32" fill="none" stroke="url(#forecastLine)" stroke-width="4" stroke-linecap="round" stroke-linejoin="round"/>
<circle cx="100.00" cy="522.87" r="6" fill="#07111f" stroke="#72fff0" stroke-width="3"/>
<circle cx="115.30" cy="530.00" r="6" fill="#07111f" stroke="#72fff0" stroke-width="3"/>
<circle cx="121.79" cy="478.98" r="6" fill="#07111f" stroke="#72fff0" stroke-width="3"/>
<circle cx="166.70" cy="218.88" r="6" fill="#07111f" stroke="#72fff0" stroke-width="3"/>
<circle cx="184.78" cy="170.00" r="6" fill="#07111f" stroke="#72fff0" stroke-width="3"/>
<circle cx="860.00" cy="266.32" r="6" fill="#07111f" stroke="#72fff0" stroke-width="3"/>
<circle cx="860.00" cy="266.32" r="6" fill="#07111f" stroke="#72fff0" stroke-width="3"/>
<polyline points="100.00,397.21 115.30,388.36 121.79,382.46 166.70,376.56 184.78,364.75 860.00,170.00 860.00,170.00" fill="none" stroke="url(#fillLine)" stroke-width="3" stroke-dasharray="10 8" stroke-linecap="round" stroke-linejoin="round"/>
<circle cx="100.00" cy="397.21" r="4" fill="#ffcf71"/>
<circle cx="115.30" cy="388.36" r="4" fill="#ffcf71"/>
<circle cx="121.79" cy="382.46" r="4" fill="#ffcf71"/>
<circle cx="166.70" cy="376.56" r="4" fill="#ffcf71"/>
<circle cx="184.78" cy="364.75" r="4" fill="#ffcf71"/>
<circle cx="860.00" cy="170.00" r="4" fill="#ffcf71"/>
<circle cx="860.00" cy="170.00" r="4" fill="#ffcf71"/>
<line x1="100.00" y1="530" x2="100.00" y2="540" stroke="#89a6ca"/>
<text x="100.00" y="564" text-anchor="middle" font-family="'Trebuchet MS','Segoe UI',sans-serif" font-size="13" fill="#d7e4f5">18:44</text>
<line x1="115.30" y1="530" x2="115.30" y2="540" stroke="#89a6ca"/>
<text x="115.30" y="564" text-anchor="middle" font-family="'Trebuchet MS','Segoe UI',sans-serif" font-size="13" fill="#d7e4f5">19:05</text>
<line x1="121.79" y1="530" x2="121.79" y2="540" stroke="#89a6ca"/>
<text x="121.79" y="564" text-anchor="middle" font-family="'Trebuchet MS','Segoe UI',sans-serif" font-size="13" fill="#d7e4f5">19:15</text>
<line x1="166.70" y1="530" x2="166.70" y2="540" stroke="#89a6ca"/>
<text x="166.70" y="564" text-anchor="middle" font-family="'Trebuchet MS','Segoe UI',sans-serif" font-size="13" fill="#d7e4f5">20:19</text>
<line x1="184.78" y1="530" x2="184.78" y2="540" stroke="#89a6ca"/>
<text x="184.78" y="564" text-anchor="middle" font-family="'Trebuchet MS','Segoe UI',sans-serif" font-size="13" fill="#d7e4f5">20:44</text>
<line x1="860.00" y1="530" x2="860.00" y2="540" stroke="#89a6ca"/>
<text x="860.00" y="564" text-anchor="middle" font-family="'Trebuchet MS','Segoe UI',sans-serif" font-size="13" fill="#d7e4f5">12:44</text>
<line x1="860.00" y1="530" x2="860.00" y2="540" stroke="#89a6ca"/>
<text x="860.00" y="564" text-anchor="middle" font-family="'Trebuchet MS','Segoe UI',sans-serif" font-size="13" fill="#d7e4f5">12:44</text>
<text x="82" y="174.00" text-anchor="end" font-family="'Trebuchet MS','Segoe UI',sans-serif" font-size="13" fill="#c6dbf4">6.42M%</text>
<text x="82" y="264.00" text-anchor="end" font-family="'Trebuchet MS','Segoe UI',sans-serif" font-size="13" fill="#c6dbf4">5.93M%</text>
<text x="82" y="354.00" text-anchor="end" font-family="'Trebuchet MS','Segoe UI',sans-serif" font-size="13" fill="#c6dbf4">5.45M%</text>
<text x="82" y="444.00" text-anchor="end" font-family="'Trebuchet MS','Segoe UI',sans-serif" font-size="13" fill="#c6dbf4">4.97M%</text>
<text x="82" y="534.00" text-anchor="end" font-family="'Trebuchet MS','Segoe UI',sans-serif" font-size="13" fill="#c6dbf4">4.49M%</text>
<text x="878" y="174.00" font-family="'Trebuchet MS','Segoe UI',sans-serif" font-size="13" fill="#ffd8a8">122 fills</text>
<text x="878" y="264.00" font-family="'Trebuchet MS','Segoe UI',sans-serif" font-size="13" fill="#ffd8a8">92 fills</text>
<text x="878" y="354.00" font-family="'Trebuchet MS','Segoe UI',sans-serif" font-size="13" fill="#ffd8a8">61 fills</text>
<text x="878" y="444.00" font-family="'Trebuchet MS','Segoe UI',sans-serif" font-size="13" fill="#ffd8a8">30 fills</text>
<text x="878" y="534.00" font-family="'Trebuchet MS','Segoe UI',sans-serif" font-size="13" fill="#ffd8a8">0 fills</text>
<rect x="100" y="146" width="18" height="4" rx="2" fill="#5cf2df"/>
<text x="128" y="154" font-family="'Trebuchet MS','Segoe UI',sans-serif" font-size="14" fill="#e8f2ff">Best-package forecast ARR</text>
<rect x="360" y="146" width="18" height="4" rx="2" fill="#ffc25f"/>
<text x="388" y="154" font-family="'Trebuchet MS','Segoe UI',sans-serif" font-size="14" fill="#e8f2ff">Live-filled row growth</text>
<text x="926" y="204" font-family="'Trebuchet MS','Segoe UI',sans-serif" font-size="13" fill="#91a8c7">SELECTED SOURCE</text>
<text x="926" y="226" font-family="'Trebuchet MS','Segoe UI',sans-serif" font-size="18" fill="#f8fbff">reports/btc5_autoresearch_loop/latest.json</text>
<text x="926" y="254" font-family="'Trebuchet MS','Segoe UI',sans-serif" font-size="13" fill="#91a8c7">DEPLOY RECOMMENDATION</text>
<text x="926" y="276" font-family="'Trebuchet MS','Segoe UI',sans-serif" font-size="18" fill="#f8fbff">promote</text>
<text x="926" y="304" font-family="'Trebuchet MS','Segoe UI',sans-serif" font-size="13" fill="#91a8c7">CONFIDENCE</text>
<text x="926" y="326" font-family="'Trebuchet MS','Segoe UI',sans-serif" font-size="18" fill="#f8fbff">high</text>
<text x="926" y="354" font-family="'Trebuchet MS','Segoe UI',sans-serif" font-size="13" fill="#91a8c7">FORECAST ARR GAIN</text>
<text x="926" y="376" font-family="'Trebuchet MS','Segoe UI',sans-serif" font-size="18" fill="#f8fbff">1.98M%</text>
<text x="926" y="404" font-family="'Trebuchet MS','Segoe UI',sans-serif" font-size="13" fill="#91a8c7">CYCLES IN WINDOW</text>
<text x="926" y="426" font-family="'Trebuchet MS','Segoe UI',sans-serif" font-size="18" fill="#f8fbff">9</text>
<text x="926" y="454" font-family="'Trebuchet MS','Segoe UI',sans-serif" font-size="13" fill="#91a8c7">WINDOW</text>
<text x="926" y="476" font-family="'Trebuchet MS','Segoe UI',sans-serif" font-size="18" fill="#f8fbff">18.01h</text>
<text x="926" y="504" font-family="'Trebuchet MS','Segoe UI',sans-serif" font-size="13" fill="#91a8c7">FILL GROWTH</text>
<text x="926" y="526" font-family="'Trebuchet MS','Segoe UI',sans-serif" font-size="18" fill="#f8fbff">+77 rows</text>
<text x="926" y="554" font-family="'Trebuchet MS','Segoe UI',sans-serif" font-size="13" fill="#91a8c7">PER DAY</text>
<text x="926" y="576" font-family="'Trebuchet MS','Segoe UI',sans-serif" font-size="18" fill="#f8fbff">2.64M% / 102.6 fills</text>
<text x="926" y="604" font-family="'Trebuchet MS','Segoe UI',sans-serif" font-size="13" fill="#91a8c7">SAMPLE</text>
<text x="926" y="626" font-family="'Trebuchet MS','Segoe UI',sans-serif" font-size="18" fill="#f8fbff">12 live fills in the realized</text>
<text x="926" y="648" font-family="'Trebuchet MS','Segoe UI',sans-serif" font-size="18" fill="#f8fbff">sleeve window; 23 validation</text>
<text x="926" y="670" font-family="'Trebuchet MS','Segoe UI',sans-serif" font-size="18" fill="#f8fbff">live-filled rows in the selected</text>
<text x="926" y="692" font-family="'Trebuchet MS','Segoe UI',sans-serif" font-size="18" fill="#f8fbff">forecast; 57 observed BTC5 windows</text>
<text x="926" y="714" font-family="'Trebuchet MS','Segoe UI',sans-serif" font-size="18" fill="#f8fbff">in the selected forecast artifact</text>
<text x="80" y="630" font-family="'Trebuchet MS','Segoe UI',sans-serif" font-size="13" fill="#c3d6ee">Metric: Best-package BTC5 continuation ARR trend | Window: 2026-03-09 18:44 UTC -&gt; 2026-03-10 12:44 UTC (18.01h)</text>
<text x="80" y="650" font-family="'Trebuchet MS','Segoe UI',sans-serif" font-size="13" fill="#c3d6ee">Confidence: high | Sample: 12 live fills in the realized sleeve window; 23 validation live-filled rows in the selected</text>
<text x="80" y="670" font-family="'Trebuchet MS','Segoe UI',sans-serif" font-size="13" fill="#c3d6ee">forecast; 57 observed BTC5 windows in the selected forecast artifact | Source:</text>
<text x="80" y="690" font-family="'Trebuchet MS','Segoe UI',sans-serif" font-size="13" fill="#c3d6ee">reports/btc5_autoresearch_loop/latest.json</text>
<text x="80" y="710" font-family="'Trebuchet MS','Segoe UI',sans-serif" font-size="13" fill="#c3d6ee">Source class: forecast loop history + BTC5 window rows</text>
</svg>
