<svg xmlns="http://www.w3.org/2000/svg" width="1600" height="980" viewBox="0 0 1600 980">
<rect width="100%" height="100%" fill="#f5f4ef"/>
<text x="800.0" y="28" text-anchor="middle" font-family="Arial, sans-serif" font-size="18" fill="#1f1f1f">Elastifund Improvement Velocity</text>
<text x="800.0" y="52" text-anchor="middle" font-family="Arial, sans-serif" font-size="13" fill="#4c4c4c">18 runs, 1 kept marks, frontier change 0.0000, latest 5-run slope 0.0000 / hour, trend flat</text>
<text x="800.0" y="72" text-anchor="middle" font-family="Arial, sans-serif" font-size="12" fill="#666">Average cadence 4.31 runs/hour. Metric: Top hypothesis composite score (higher is better)</text>
<rect x="105" y="120" width="1467" height="300" fill="#ffffff" stroke="#d8d2c9"/>
<text x="105" y="106" font-family="Arial, sans-serif" font-size="14" fill="#1f1f1f">Running Frontier</text>
<line x1="105" y1="420.00" x2="1572" y2="420.00" stroke="#ece8e2" stroke-width="1"/>
<text x="95" y="424.00" text-anchor="end" font-family="Arial, sans-serif" font-size="11" fill="#666">0.411</text>
<line x1="105" y1="360.00" x2="1572" y2="360.00" stroke="#ece8e2" stroke-width="1"/>
<text x="95" y="364.00" text-anchor="end" font-family="Arial, sans-serif" font-size="11" fill="#666">0.496</text>
<line x1="105" y1="300.00" x2="1572" y2="300.00" stroke="#ece8e2" stroke-width="1"/>
<text x="95" y="304.00" text-anchor="end" font-family="Arial, sans-serif" font-size="11" fill="#666">0.580</text>
<line x1="105" y1="240.00" x2="1572" y2="240.00" stroke="#ece8e2" stroke-width="1"/>
<text x="95" y="244.00" text-anchor="end" font-family="Arial, sans-serif" font-size="11" fill="#666">0.665</text>
<line x1="105" y1="180.00" x2="1572" y2="180.00" stroke="#ece8e2" stroke-width="1"/>
<text x="95" y="184.00" text-anchor="end" font-family="Arial, sans-serif" font-size="11" fill="#666">0.749</text>
<line x1="105" y1="120.00" x2="1572" y2="120.00" stroke="#ece8e2" stroke-width="1"/>
<text x="95" y="124.00" text-anchor="end" font-family="Arial, sans-serif" font-size="11" fill="#666">0.834</text>
<line x1="105.00" y1="120" x2="105.00" y2="420" stroke="#f0ede8" stroke-width="1"/>
<text x="105.00" y="442" text-anchor="middle" font-family="Arial, sans-serif" font-size="11" fill="#666">0.0</text>
<line x1="398.40" y1="120" x2="398.40" y2="420" stroke="#f0ede8" stroke-width="1"/>
<text x="398.40" y="442" text-anchor="middle" font-family="Arial, sans-serif" font-size="11" fill="#666">0.8</text>
<line x1="691.80" y1="120" x2="691.80" y2="420" stroke="#f0ede8" stroke-width="1"/>
<text x="691.80" y="442" text-anchor="middle" font-family="Arial, sans-serif" font-size="11" fill="#666">1.6</text>
<line x1="985.20" y1="120" x2="985.20" y2="420" stroke="#f0ede8" stroke-width="1"/>
<text x="985.20" y="442" text-anchor="middle" font-family="Arial, sans-serif" font-size="11" fill="#666">2.4</text>
<line x1="1278.60" y1="120" x2="1278.60" y2="420" stroke="#f0ede8" stroke-width="1"/>
<text x="1278.60" y="442" text-anchor="middle" font-family="Arial, sans-serif" font-size="11" fill="#666">3.2</text>
<line x1="1572.00" y1="120" x2="1572.00" y2="420" stroke="#f0ede8" stroke-width="1"/>
<text x="1572.00" y="442" text-anchor="middle" font-family="Arial, sans-serif" font-size="11" fill="#666">3.9</text>
<line x1="105" y1="420" x2="1572" y2="420" stroke="#5e5a55" stroke-width="1.5"/>
<line x1="105" y1="120" x2="105" y2="420" stroke="#5e5a55" stroke-width="1.5"/>
<text x="838.5" y="464" text-anchor="middle" font-family="Arial, sans-serif" font-size="12" fill="#444">Elapsed hours since first run</text>
<text transform="translate(33.0,270.0) rotate(-90)" text-anchor="middle" font-family="Arial, sans-serif" font-size="12" fill="#444">Top hypothesis composite score (higher is better)</text>
<rect x="105" y="498" width="1467" height="300" fill="#ffffff" stroke="#d8d2c9"/>
<text x="105" y="484" font-family="Arial, sans-serif" font-size="14" fill="#1f1f1f">Frontier Velocity (5-run rolling slope)</text>
<line x1="105" y1="798.00" x2="1572" y2="798.00" stroke="#ece8e2" stroke-width="1"/>
<text x="95" y="802.00" text-anchor="end" font-family="Arial, sans-serif" font-size="11" fill="#666">-0.050</text>
<line x1="105" y1="738.00" x2="1572" y2="738.00" stroke="#ece8e2" stroke-width="1"/>
<text x="95" y="742.00" text-anchor="end" font-family="Arial, sans-serif" font-size="11" fill="#666">-0.030</text>
<line x1="105" y1="678.00" x2="1572" y2="678.00" stroke="#ece8e2" stroke-width="1"/>
<text x="95" y="682.00" text-anchor="end" font-family="Arial, sans-serif" font-size="11" fill="#666">-0.010</text>
<line x1="105" y1="618.00" x2="1572" y2="618.00" stroke="#ece8e2" stroke-width="1"/>
<text x="95" y="622.00" text-anchor="end" font-family="Arial, sans-serif" font-size="11" fill="#666">0.010</text>
<line x1="105" y1="558.00" x2="1572" y2="558.00" stroke="#ece8e2" stroke-width="1"/>
<text x="95" y="562.00" text-anchor="end" font-family="Arial, sans-serif" font-size="11" fill="#666">0.030</text>
<line x1="105" y1="498.00" x2="1572" y2="498.00" stroke="#ece8e2" stroke-width="1"/>
<text x="95" y="502.00" text-anchor="end" font-family="Arial, sans-serif" font-size="11" fill="#666">0.050</text>
<line x1="105.00" y1="498" x2="105.00" y2="798" stroke="#f0ede8" stroke-width="1"/>
<text x="105.00" y="820" text-anchor="middle" font-family="Arial, sans-serif" font-size="11" fill="#666">0.0</text>
<line x1="398.40" y1="498" x2="398.40" y2="798" stroke="#f0ede8" stroke-width="1"/>
<text x="398.40" y="820" text-anchor="middle" font-family="Arial, sans-serif" font-size="11" fill="#666">0.8</text>
<line x1="691.80" y1="498" x2="691.80" y2="798" stroke="#f0ede8" stroke-width="1"/>
<text x="691.80" y="820" text-anchor="middle" font-family="Arial, sans-serif" font-size="11" fill="#666">1.6</text>
<line x1="985.20" y1="498" x2="985.20" y2="798" stroke="#f0ede8" stroke-width="1"/>
<text x="985.20" y="820" text-anchor="middle" font-family="Arial, sans-serif" font-size="11" fill="#666">2.4</text>
<line x1="1278.60" y1="498" x2="1278.60" y2="798" stroke="#f0ede8" stroke-width="1"/>
<text x="1278.60" y="820" text-anchor="middle" font-family="Arial, sans-serif" font-size="11" fill="#666">3.2</text>
<line x1="1572.00" y1="498" x2="1572.00" y2="798" stroke="#f0ede8" stroke-width="1"/>
<text x="1572.00" y="820" text-anchor="middle" font-family="Arial, sans-serif" font-size="11" fill="#666">3.9</text>
<line x1="105" y1="798" x2="1572" y2="798" stroke="#5e5a55" stroke-width="1.5"/>
<line x1="105" y1="498" x2="105" y2="798" stroke="#5e5a55" stroke-width="1.5"/>
<text x="838.5" y="842" text-anchor="middle" font-family="Arial, sans-serif" font-size="12" fill="#444">Elapsed hours since first run</text>
<text transform="translate(33.0,648.0) rotate(-90)" text-anchor="middle" font-family="Arial, sans-serif" font-size="12" fill="#444">Improvement rate per hour</text>
<line x1="105" y1="648.00" x2="1572" y2="648.00" stroke="#8a8a8a" stroke-dasharray="6 6" stroke-width="1.2"/>
<polyline points="105.00,154.62 112.43,154.62 131.31,154.62 377.22,385.38 401.27,385.38 416.95,385.38 626.54,385.38 633.35,385.38 639.03,385.38 661.11,385.38 794.23,385.38 911.35,385.38 939.63,350.63 941.38,350.63 986.07,350.63 989.68,350.63 992.36,350.63 1572.00,350.63" fill="none" stroke="#c6c6c6" stroke-width="2" opacity="0.75"/>
<polyline points="105.00,154.62 112.43,154.62 131.31,154.62 377.22,154.62 401.27,154.62 416.95,154.62 626.54,154.62 633.35,154.62 639.03,154.62 661.11,154.62 794.23,154.62 911.35,154.62 939.63,154.62 941.38,154.62 986.07,154.62 989.68,154.62 992.36,154.62 1572.00,154.62" fill="none" stroke="#167c5b" stroke-width="3.4" stroke-linejoin="round" stroke-linecap="round"/>
<circle cx="105.00" cy="154.62" r="5.5" fill="#167c5b" stroke="#ffffff" stroke-width="1.5"/>
<text x="113.00" y="146.62" font-family="Arial, sans-serif" font-size="11" fill="#155440">baseline</text>
<circle cx="112.43" cy="154.62" r="4.2" fill="#b8b8b8"/>
<circle cx="131.31" cy="154.62" r="4.2" fill="#b8b8b8"/>
<circle cx="377.22" cy="385.38" r="4.2" fill="#b8b8b8"/>
<circle cx="401.27" cy="385.38" r="4.2" fill="#b8b8b8"/>
<circle cx="416.95" cy="385.38" r="4.2" fill="#b8b8b8"/>
<circle cx="626.54" cy="385.38" r="4.2" fill="#b8b8b8"/>
<circle cx="633.35" cy="385.38" r="4.2" fill="#b8b8b8"/>
<circle cx="639.03" cy="385.38" r="4.2" fill="#b8b8b8"/>
<circle cx="661.11" cy="385.38" r="4.2" fill="#b8b8b8"/>
<circle cx="794.23" cy="385.38" r="4.2" fill="#b8b8b8"/>
<circle cx="911.35" cy="385.38" r="4.2" fill="#b8b8b8"/>
<circle cx="939.63" cy="350.63" r="4.2" fill="#b8b8b8"/>
<circle cx="941.38" cy="350.63" r="4.2" fill="#b8b8b8"/>
<circle cx="986.07" cy="350.63" r="4.2" fill="#b8b8b8"/>
<circle cx="989.68" cy="350.63" r="4.2" fill="#b8b8b8"/>
<circle cx="992.36" cy="350.63" r="4.2" fill="#b8b8b8"/>
<circle cx="1572.00" cy="350.63" r="4.2" fill="#b8b8b8"/>
<rect x="108.43" y="648.00" width="8" height="0.00" fill="#b7bcc4" opacity="0.85"/>
<rect x="127.31" y="648.00" width="8" height="0.00" fill="#b7bcc4" opacity="0.85"/>
<rect x="373.22" y="648.00" width="8" height="0.00" fill="#b7bcc4" opacity="0.85"/>
<rect x="397.27" y="648.00" width="8" height="0.00" fill="#b7bcc4" opacity="0.85"/>
<rect x="412.95" y="648.00" width="8" height="0.00" fill="#b7bcc4" opacity="0.85"/>
<rect x="622.54" y="648.00" width="8" height="0.00" fill="#b7bcc4" opacity="0.85"/>
<rect x="629.35" y="648.00" width="8" height="0.00" fill="#b7bcc4" opacity="0.85"/>
<rect x="635.03" y="648.00" width="8" height="0.00" fill="#b7bcc4" opacity="0.85"/>
<rect x="657.11" y="648.00" width="8" height="0.00" fill="#b7bcc4" opacity="0.85"/>
<rect x="790.23" y="648.00" width="8" height="0.00" fill="#b7bcc4" opacity="0.85"/>
<rect x="907.35" y="648.00" width="8" height="0.00" fill="#b7bcc4" opacity="0.85"/>
<rect x="935.63" y="648.00" width="8" height="0.00" fill="#b7bcc4" opacity="0.85"/>
<rect x="937.38" y="648.00" width="8" height="0.00" fill="#b7bcc4" opacity="0.85"/>
<rect x="982.07" y="648.00" width="8" height="0.00" fill="#b7bcc4" opacity="0.85"/>
<rect x="985.68" y="648.00" width="8" height="0.00" fill="#b7bcc4" opacity="0.85"/>
<rect x="988.36" y="648.00" width="8" height="0.00" fill="#b7bcc4" opacity="0.85"/>
<rect x="1568.00" y="648.00" width="8" height="0.00" fill="#b7bcc4" opacity="0.85"/>
<polyline points="112.43,648.00 131.31,648.00 377.22,648.00 401.27,648.00 416.95,648.00 626.54,648.00 633.35,648.00 639.03,648.00 661.11,648.00 794.23,648.00 911.35,648.00 939.63,648.00 941.38,648.00 986.07,648.00 989.68,648.00 992.36,648.00 1572.00,648.00" fill="none" stroke="#0f4c81" stroke-width="3" stroke-linejoin="round" stroke-linecap="round"/>
<circle cx="112.43" cy="648.00" r="3.3" fill="#0f4c81"/>
<circle cx="131.31" cy="648.00" r="3.3" fill="#0f4c81"/>
<circle cx="377.22" cy="648.00" r="3.3" fill="#0f4c81"/>
<circle cx="401.27" cy="648.00" r="3.3" fill="#0f4c81"/>
<circle cx="416.95" cy="648.00" r="3.3" fill="#0f4c81"/>
<circle cx="626.54" cy="648.00" r="3.3" fill="#0f4c81"/>
<circle cx="633.35" cy="648.00" r="3.3" fill="#0f4c81"/>
<circle cx="639.03" cy="648.00" r="3.3" fill="#0f4c81"/>
<circle cx="661.11" cy="648.00" r="3.3" fill="#0f4c81"/>
<circle cx="794.23" cy="648.00" r="3.3" fill="#0f4c81"/>
<circle cx="911.35" cy="648.00" r="3.3" fill="#0f4c81"/>
<circle cx="939.63" cy="648.00" r="3.3" fill="#0f4c81"/>
<circle cx="941.38" cy="648.00" r="3.3" fill="#0f4c81"/>
<circle cx="986.07" cy="648.00" r="3.3" fill="#0f4c81"/>
<circle cx="989.68" cy="648.00" r="3.3" fill="#0f4c81"/>
<circle cx="992.36" cy="648.00" r="3.3" fill="#0f4c81"/>
<circle cx="1572.00" cy="648.00" r="3.3" fill="#0f4c81"/>
<rect x="1328" y="88" width="236" height="106" rx="8" fill="#ffffff" stroke="#d4d0c8"/>
<line x1="1344" y1="112" x2="1372" y2="112" stroke="#167c5b" stroke-width="3.4"/>
<text x="1384" y="116" font-family="Arial, sans-serif" font-size="12" fill="#333">Running frontier</text>
<rect x="1340" y="128" width="10" height="16" fill="#2f855a" opacity="0.85"/>
<text x="1384" y="141" font-family="Arial, sans-serif" font-size="12" fill="#333">Improvement spike</text>
<line x1="1344" y1="160" x2="1372" y2="160" stroke="#0f4c81" stroke-width="3"/>
<text x="1384" y="164" font-family="Arial, sans-serif" font-size="12" fill="#333">Rolling velocity</text>
<circle cx="1348" cy="180" r="4.6" fill="#167c5b" stroke="#ffffff" stroke-width="1.2"/>
<text x="1384" y="184" font-family="Arial, sans-serif" font-size="12" fill="#333">Kept high-water mark</text>
<text x="105" y="952" font-family="Arial, sans-serif" font-size="12" fill="#666">Latest acceleration: +0.0000 per hour²</text>
</svg>
