<svg xmlns="http://www.w3.org/2000/svg" width="1600" height="860" viewBox="0 0 1600 860">
<rect width="100%" height="100%" fill="#f2f2f2"/>
<text x="800.0" y="28" text-anchor="middle" font-family="Arial, sans-serif" font-size="16" fill="#222">Elastifund Research Progress: 18 Runs, 1 Kept High-Water Marks</text>
<line x1="110" y1="770.00" x2="1576" y2="770.00" stroke="#d7d7d7" stroke-width="1"/>
<text x="100" y="774.00" text-anchor="end" font-family="Arial, sans-serif" font-size="12" fill="#555">0.411</text>
<line x1="110" y1="626.00" x2="1576" y2="626.00" stroke="#d7d7d7" stroke-width="1"/>
<text x="100" y="630.00" text-anchor="end" font-family="Arial, sans-serif" font-size="12" fill="#555">0.496</text>
<line x1="110" y1="482.00" x2="1576" y2="482.00" stroke="#d7d7d7" stroke-width="1"/>
<text x="100" y="486.00" text-anchor="end" font-family="Arial, sans-serif" font-size="12" fill="#555">0.580</text>
<line x1="110" y1="338.00" x2="1576" y2="338.00" stroke="#d7d7d7" stroke-width="1"/>
<text x="100" y="342.00" text-anchor="end" font-family="Arial, sans-serif" font-size="12" fill="#555">0.665</text>
<line x1="110" y1="194.00" x2="1576" y2="194.00" stroke="#d7d7d7" stroke-width="1"/>
<text x="100" y="198.00" text-anchor="end" font-family="Arial, sans-serif" font-size="12" fill="#555">0.749</text>
<line x1="110" y1="50.00" x2="1576" y2="50.00" stroke="#d7d7d7" stroke-width="1"/>
<text x="100" y="54.00" text-anchor="end" font-family="Arial, sans-serif" font-size="12" fill="#555">0.834</text>
<line x1="110.00" y1="50" x2="110.00" y2="770" stroke="#e1e1e1" stroke-width="1"/>
<text x="110.00" y="794" text-anchor="middle" font-family="Arial, sans-serif" font-size="12" fill="#555">1</text>
<line x1="282.47" y1="50" x2="282.47" y2="770" stroke="#e1e1e1" stroke-width="1"/>
<text x="282.47" y="794" text-anchor="middle" font-family="Arial, sans-serif" font-size="12" fill="#555">3</text>
<line x1="454.94" y1="50" x2="454.94" y2="770" stroke="#e1e1e1" stroke-width="1"/>
<text x="454.94" y="794" text-anchor="middle" font-family="Arial, sans-serif" font-size="12" fill="#555">5</text>
<line x1="627.41" y1="50" x2="627.41" y2="770" stroke="#e1e1e1" stroke-width="1"/>
<text x="627.41" y="794" text-anchor="middle" font-family="Arial, sans-serif" font-size="12" fill="#555">7</text>
<line x1="886.12" y1="50" x2="886.12" y2="770" stroke="#e1e1e1" stroke-width="1"/>
<text x="886.12" y="794" text-anchor="middle" font-family="Arial, sans-serif" font-size="12" fill="#555">10</text>
<line x1="1058.59" y1="50" x2="1058.59" y2="770" stroke="#e1e1e1" stroke-width="1"/>
<text x="1058.59" y="794" text-anchor="middle" font-family="Arial, sans-serif" font-size="12" fill="#555">12</text>
<line x1="1231.06" y1="50" x2="1231.06" y2="770" stroke="#e1e1e1" stroke-width="1"/>
<text x="1231.06" y="794" text-anchor="middle" font-family="Arial, sans-serif" font-size="12" fill="#555">14</text>
<line x1="1403.53" y1="50" x2="1403.53" y2="770" stroke="#e1e1e1" stroke-width="1"/>
<text x="1403.53" y="794" text-anchor="middle" font-family="Arial, sans-serif" font-size="12" fill="#555">16</text>
<line x1="1576.00" y1="50" x2="1576.00" y2="770" stroke="#e1e1e1" stroke-width="1"/>
<text x="1576.00" y="794" text-anchor="middle" font-family="Arial, sans-serif" font-size="12" fill="#555">18</text>
<line x1="110" y1="770" x2="1576" y2="770" stroke="#555" stroke-width="1.5"/>
<line x1="110" y1="50" x2="110" y2="770" stroke="#555" stroke-width="1.5"/>
<polyline points="110.00,133.08" fill="none" stroke="#27ae60" stroke-width="3" opacity="0.8"/>
<circle cx="196.24" cy="133.08" r="4" fill="#c8c8c8" opacity="0.7"/>
<circle cx="282.47" cy="133.08" r="4" fill="#c8c8c8" opacity="0.7"/>
<circle cx="368.71" cy="686.92" r="4" fill="#c8c8c8" opacity="0.7"/>
<circle cx="454.94" cy="686.92" r="4" fill="#c8c8c8" opacity="0.7"/>
<circle cx="541.18" cy="686.92" r="4" fill="#c8c8c8" opacity="0.7"/>
<circle cx="627.41" cy="686.92" r="4" fill="#c8c8c8" opacity="0.7"/>
<circle cx="713.65" cy="686.92" r="4" fill="#c8c8c8" opacity="0.7"/>
<circle cx="799.88" cy="686.92" r="4" fill="#c8c8c8" opacity="0.7"/>
<circle cx="886.12" cy="686.92" r="4" fill="#c8c8c8" opacity="0.7"/>
<circle cx="972.35" cy="686.92" r="4" fill="#c8c8c8" opacity="0.7"/>
<circle cx="1058.59" cy="686.92" r="4" fill="#c8c8c8" opacity="0.7"/>
<circle cx="1144.82" cy="603.52" r="4" fill="#c8c8c8" opacity="0.7"/>
<circle cx="1231.06" cy="603.52" r="4" fill="#c8c8c8" opacity="0.7"/>
<circle cx="1317.29" cy="603.52" r="4" fill="#c8c8c8" opacity="0.7"/>
<circle cx="1403.53" cy="603.52" r="4" fill="#c8c8c8" opacity="0.7"/>
<circle cx="1489.76" cy="603.52" r="4" fill="#c8c8c8" opacity="0.7"/>
<circle cx="1576.00" cy="603.52" r="4" fill="#c8c8c8" opacity="0.7"/>
<circle cx="110.00" cy="133.08" r="6" fill="#2ecc71" stroke="#222" stroke-width="1"/>
<text transform="translate(120.00,125.08) rotate(-30)" font-family="Arial, sans-serif" font-size="12" fill="#1a7a3a">baseline</text>
<rect x="1370" y="58" width="200" height="84" rx="6" fill="#ffffff" stroke="#d0d0d0"/>
<circle cx="1390" cy="82" r="4" fill="#c8c8c8" opacity="0.7"/>
<text x="1410" y="86" font-family="Arial, sans-serif" font-size="12" fill="#333">Discarded</text>
<circle cx="1390" cy="106" r="6" fill="#2ecc71" stroke="#222" stroke-width="1"/>
<text x="1410" y="110" font-family="Arial, sans-serif" font-size="12" fill="#333">Kept</text>
<line x1="1382" y1="132" x2="1398" y2="132" stroke="#27ae60" stroke-width="3" opacity="0.8"/>
<text x="1410" y="136" font-family="Arial, sans-serif" font-size="12" fill="#333">Running best</text>
<text x="800.0" y="836" text-anchor="middle" font-family="Arial, sans-serif" font-size="14" fill="#222">Experiment #</text>
<text transform="translate(28,430.0) rotate(-90)" text-anchor="middle" font-family="Arial, sans-serif" font-size="14" fill="#222">Top hypothesis composite score (higher is better)</text>
</svg>
