<svg xmlns="http://www.w3.org/2000/svg" width="1280" height="620" viewBox="0 0 1280 620" role="img" aria-label="BTC5 USD per day outcome progress">
<rect width="1280" height="620" fill="#FBF7EE" />
<text x="100" y="42" font-size="28" font-weight="700" fill="#1E1C18">BTC5 USD/Day Outcome</text>
<text x="100" y="66" font-size="16" fill="#5F5A50">Wallet-scaled outcome estimate. Expected $-208.13/day; historical $26.95/day. Not benchmark loss.</text>
<line x1="100" y1="520.00" x2="1240" y2="520.00" stroke="#E7E0D4" stroke-width="1" />
<line x1="100" y1="300.00" x2="1240" y2="300.00" stroke="#E7E0D4" stroke-width="1" />
<line x1="100" y1="80.00" x2="1240" y2="80.00" stroke="#E7E0D4" stroke-width="1" />
<text x="88" y="525.00" text-anchor="end" font-size="14" fill="#5F5A50">$-231.64</text>
<text x="88" y="305.00" text-anchor="end" font-size="14" fill="#5F5A50">$-90.59</text>
<text x="88" y="85.00" text-anchor="end" font-size="14" fill="#5F5A50">$50.46</text>
<line x1="100" y1="158.70" x2="1240" y2="158.70" stroke="#8E8A80" stroke-width="1.5" stroke-dasharray="4 4" />
<polyline fill="none" stroke="#5B7188" stroke-width="2.0" points="100.00,483.33 670.00,483.33 1240.00,483.33" />
<polyline fill="none" stroke="#16324F" stroke-width="3.5" points="100.00,483.33 670.00,483.33 1240.00,483.33" />
<polyline fill="none" stroke="#C56A1A" stroke-width="3.5" points="100.00,116.67 670.00,116.67 1240.00,116.67" />
<circle cx="1240.00" cy="483.33" r="6" fill="#16324F" />
<circle cx="1240.00" cy="116.67" r="6" fill="#C56A1A" />
<text x="1240" y="66" text-anchor="end" font-size="15" fill="#16324F">Expected (MC median)</text>
<text x="1060" y="66" text-anchor="end" font-size="15" fill="#C56A1A">Historical replay</text>
<text x="900" y="66" text-anchor="end" font-size="15" fill="#5B7188">Frontier expected</text>
<line x1="100" y1="520" x2="1240" y2="520" stroke="#1E1C18" stroke-width="1.5" />
<line x1="100" y1="80" x2="100" y2="520" stroke="#1E1C18" stroke-width="1.5" />
<text x="640" y="592" text-anchor="middle" font-size="14" fill="#1E1C18">outcome cycle</text>
<text x="36" y="310" transform="rotate(-90 36 310)" text-anchor="middle" font-size="14" fill="#1E1C18">USD / day</text>
<text x="1240" y="568" text-anchor="end" font-size="15" fill="#5F5A50">Cycle 3 at 2026-03-11T21:46:59.308927+00:00 | edge: historical_positive_but_mc_negative</text>
</svg>
