<svg xmlns="http://www.w3.org/2000/svg" width="1600" height="900" viewBox="0 0 1600 900">
<rect width="100%" height="100%" fill="#f7f5ef"/>
<text x="800.0" y="38" text-anchor="middle" font-family="Arial, sans-serif" font-size="24" fill="#363636">BTC5 Market-Model Benchmark Progress</text>
<line x1="125" y1="770.00" x2="1560" y2="770.00" stroke="#d8d2c6" stroke-width="1"/>
<text x="111" y="775.00" text-anchor="end" font-family="Arial, sans-serif" font-size="12" fill="#555555">5.163</text>
<line x1="125" y1="632.00" x2="1560" y2="632.00" stroke="#d8d2c6" stroke-width="1"/>
<text x="111" y="637.00" text-anchor="end" font-family="Arial, sans-serif" font-size="12" fill="#555555">5.169</text>
<line x1="125" y1="494.00" x2="1560" y2="494.00" stroke="#d8d2c6" stroke-width="1"/>
<text x="111" y="499.00" text-anchor="end" font-family="Arial, sans-serif" font-size="12" fill="#555555">5.176</text>
<line x1="125" y1="356.00" x2="1560" y2="356.00" stroke="#d8d2c6" stroke-width="1"/>
<text x="111" y="361.00" text-anchor="end" font-family="Arial, sans-serif" font-size="12" fill="#555555">5.182</text>
<line x1="125" y1="218.00" x2="1560" y2="218.00" stroke="#d8d2c6" stroke-width="1"/>
<text x="111" y="223.00" text-anchor="end" font-family="Arial, sans-serif" font-size="12" fill="#555555">5.189</text>
<line x1="125" y1="80.00" x2="1560" y2="80.00" stroke="#d8d2c6" stroke-width="1"/>
<text x="111" y="85.00" text-anchor="end" font-family="Arial, sans-serif" font-size="12" fill="#555555">5.195</text>
<line x1="125.00" y1="80" x2="125.00" y2="770" stroke="#ece7dc" stroke-width="1"/>
<text x="125.00" y="798" text-anchor="middle" font-family="Arial, sans-serif" font-size="12" fill="#555555">1</text>
<line x1="280.14" y1="80" x2="280.14" y2="770" stroke="#ece7dc" stroke-width="1"/>
<text x="280.14" y="798" text-anchor="middle" font-family="Arial, sans-serif" font-size="12" fill="#555555">9</text>
<line x1="435.27" y1="80" x2="435.27" y2="770" stroke="#ece7dc" stroke-width="1"/>
<text x="435.27" y="798" text-anchor="middle" font-family="Arial, sans-serif" font-size="12" fill="#555555">17</text>
<line x1="609.80" y1="80" x2="609.80" y2="770" stroke="#ece7dc" stroke-width="1"/>
<text x="609.80" y="798" text-anchor="middle" font-family="Arial, sans-serif" font-size="12" fill="#555555">26</text>
<line x1="764.93" y1="80" x2="764.93" y2="770" stroke="#ece7dc" stroke-width="1"/>
<text x="764.93" y="798" text-anchor="middle" font-family="Arial, sans-serif" font-size="12" fill="#555555">34</text>
<line x1="920.07" y1="80" x2="920.07" y2="770" stroke="#ece7dc" stroke-width="1"/>
<text x="920.07" y="798" text-anchor="middle" font-family="Arial, sans-serif" font-size="12" fill="#555555">42</text>
<line x1="1075.20" y1="80" x2="1075.20" y2="770" stroke="#ece7dc" stroke-width="1"/>
<text x="1075.20" y="798" text-anchor="middle" font-family="Arial, sans-serif" font-size="12" fill="#555555">50</text>
<line x1="1249.73" y1="80" x2="1249.73" y2="770" stroke="#ece7dc" stroke-width="1"/>
<text x="1249.73" y="798" text-anchor="middle" font-family="Arial, sans-serif" font-size="12" fill="#555555">59</text>
<line x1="1404.86" y1="80" x2="1404.86" y2="770" stroke="#ece7dc" stroke-width="1"/>
<text x="1404.86" y="798" text-anchor="middle" font-family="Arial, sans-serif" font-size="12" fill="#555555">67</text>
<line x1="1560.00" y1="80" x2="1560.00" y2="770" stroke="#ece7dc" stroke-width="1"/>
<text x="1560.00" y="798" text-anchor="middle" font-family="Arial, sans-serif" font-size="12" fill="#555555">75</text>
<line x1="125" y1="770" x2="1560" y2="770" stroke="#363636" stroke-width="1.5"/>
<line x1="125" y1="80" x2="125" y2="770" stroke="#363636" stroke-width="1.5"/>
<polyline points="125.00,170.84 163.78,170.84 163.78,319.32 221.96,319.32 221.96,356.48 377.09,356.48 377.09,356.74 629.19,356.74 629.19,356.78 881.28,356.78 881.28,690.38" fill="none" stroke="#1f7a3a" stroke-width="3.5" stroke-linejoin="round" stroke-linecap="round"/>
<circle cx="144.39" cy="170.84" r="6.5" fill="#b8b8b8" stroke="#ffffff" stroke-width="1.5"/>
<circle cx="183.18" cy="170.84" r="6.5" fill="#b8b8b8" stroke="#ffffff" stroke-width="1.5"/>
<circle cx="202.57" cy="319.32" r="6.5" fill="#b8b8b8" stroke="#ffffff" stroke-width="1.5"/>
<circle cx="241.35" cy="170.84" r="6.5" fill="#b8b8b8" stroke="#ffffff" stroke-width="1.5"/>
<circle cx="260.74" cy="319.32" r="6.5" fill="#b8b8b8" stroke="#ffffff" stroke-width="1.5"/>
<circle cx="280.14" cy="356.48" r="6.5" fill="#b8b8b8" stroke="#ffffff" stroke-width="1.5"/>
<circle cx="299.53" cy="238.28" r="6.5" fill="#b8b8b8" stroke="#ffffff" stroke-width="1.5"/>
<circle cx="318.92" cy="316.79" r="6.5" fill="#b8b8b8" stroke="#ffffff" stroke-width="1.5"/>
<circle cx="338.31" cy="169.15" r="6.5" fill="#b8b8b8" stroke="#ffffff" stroke-width="1.5"/>
<circle cx="357.70" cy="318.55" r="6.5" fill="#b8b8b8" stroke="#ffffff" stroke-width="1.5"/>
<circle cx="396.49" cy="170.84" r="6.5" fill="#b8b8b8" stroke="#ffffff" stroke-width="1.5"/>
<circle cx="415.88" cy="319.32" r="6.5" fill="#b8b8b8" stroke="#ffffff" stroke-width="1.5"/>
<circle cx="435.27" cy="356.48" r="6.5" fill="#b8b8b8" stroke="#ffffff" stroke-width="1.5"/>
<circle cx="454.66" cy="238.28" r="6.5" fill="#b8b8b8" stroke="#ffffff" stroke-width="1.5"/>
<circle cx="474.05" cy="316.79" r="6.5" fill="#b8b8b8" stroke="#ffffff" stroke-width="1.5"/>
<circle cx="493.45" cy="169.15" r="6.5" fill="#b8b8b8" stroke="#ffffff" stroke-width="1.5"/>
<circle cx="512.84" cy="318.55" r="6.5" fill="#b8b8b8" stroke="#ffffff" stroke-width="1.5"/>
<circle cx="532.23" cy="356.74" r="6.5" fill="#b8b8b8" stroke="#ffffff" stroke-width="1.5"/>
<circle cx="551.62" cy="238.77" r="6.5" fill="#b8b8b8" stroke="#ffffff" stroke-width="1.5"/>
<circle cx="571.01" cy="314.84" r="6.5" fill="#b8b8b8" stroke="#ffffff" stroke-width="1.5"/>
<circle cx="590.41" cy="314.41" r="6.5" fill="#b8b8b8" stroke="#ffffff" stroke-width="1.5"/>
<circle cx="609.80" cy="317.70" r="6.5" fill="#b8b8b8" stroke="#ffffff" stroke-width="1.5"/>
<circle cx="648.58" cy="170.84" r="6.5" fill="#b8b8b8" stroke="#ffffff" stroke-width="1.5"/>
<circle cx="667.97" cy="319.32" r="6.5" fill="#b8b8b8" stroke="#ffffff" stroke-width="1.5"/>
<circle cx="687.36" cy="356.48" r="6.5" fill="#b8b8b8" stroke="#ffffff" stroke-width="1.5"/>
<circle cx="706.76" cy="238.28" r="6.5" fill="#b8b8b8" stroke="#ffffff" stroke-width="1.5"/>
<circle cx="726.15" cy="316.79" r="6.5" fill="#b8b8b8" stroke="#ffffff" stroke-width="1.5"/>
<circle cx="745.54" cy="169.15" r="6.5" fill="#b8b8b8" stroke="#ffffff" stroke-width="1.5"/>
<circle cx="764.93" cy="318.55" r="6.5" fill="#b8b8b8" stroke="#ffffff" stroke-width="1.5"/>
<circle cx="784.32" cy="356.74" r="6.5" fill="#b8b8b8" stroke="#ffffff" stroke-width="1.5"/>
<circle cx="803.72" cy="238.77" r="6.5" fill="#b8b8b8" stroke="#ffffff" stroke-width="1.5"/>
<circle cx="823.11" cy="314.84" r="6.5" fill="#b8b8b8" stroke="#ffffff" stroke-width="1.5"/>
<circle cx="842.50" cy="314.41" r="6.5" fill="#b8b8b8" stroke="#ffffff" stroke-width="1.5"/>
<circle cx="861.89" cy="239.02" r="6.5" fill="#b8b8b8" stroke="#ffffff" stroke-width="1.5"/>
<circle cx="900.68" cy="170.84" r="6.5" fill="#b8b8b8" stroke="#ffffff" stroke-width="1.5"/>
<circle cx="920.07" cy="319.32" r="6.5" fill="#b8b8b8" stroke="#ffffff" stroke-width="1.5"/>
<circle cx="939.46" cy="356.48" r="6.5" fill="#b8b8b8" stroke="#ffffff" stroke-width="1.5"/>
<circle cx="958.85" cy="238.28" r="6.5" fill="#b8b8b8" stroke="#ffffff" stroke-width="1.5"/>
<circle cx="978.24" cy="316.79" r="6.5" fill="#b8b8b8" stroke="#ffffff" stroke-width="1.5"/>
<circle cx="997.64" cy="169.15" r="6.5" fill="#b8b8b8" stroke="#ffffff" stroke-width="1.5"/>
<circle cx="1017.03" cy="318.55" r="6.5" fill="#b8b8b8" stroke="#ffffff" stroke-width="1.5"/>
<circle cx="1036.42" cy="356.74" r="6.5" fill="#b8b8b8" stroke="#ffffff" stroke-width="1.5"/>
<circle cx="1055.81" cy="238.77" r="6.5" fill="#b8b8b8" stroke="#ffffff" stroke-width="1.5"/>
<circle cx="1075.20" cy="314.84" r="6.5" fill="#b8b8b8" stroke="#ffffff" stroke-width="1.5"/>
<circle cx="1094.59" cy="167.09" r="6.5" fill="#b8b8b8" stroke="#ffffff" stroke-width="1.5"/>
<circle cx="1113.99" cy="317.70" r="6.5" fill="#b8b8b8" stroke="#ffffff" stroke-width="1.5"/>
<circle cx="1133.38" cy="690.38" r="6.5" fill="#b8b8b8" stroke="#ffffff" stroke-width="1.5"/>
<circle cx="1152.77" cy="165.64" r="6.5" fill="#b8b8b8" stroke="#ffffff" stroke-width="1.5"/>
<circle cx="1172.16" cy="317.11" r="6.5" fill="#b8b8b8" stroke="#ffffff" stroke-width="1.5"/>
<circle cx="1191.55" cy="356.67" r="6.5" fill="#b8b8b8" stroke="#ffffff" stroke-width="1.5"/>
<circle cx="1210.95" cy="316.66" r="6.5" fill="#b8b8b8" stroke="#ffffff" stroke-width="1.5"/>
<circle cx="1230.34" cy="356.55" r="6.5" fill="#b8b8b8" stroke="#ffffff" stroke-width="1.5"/>
<circle cx="1249.73" cy="239.51" r="6.5" fill="#b8b8b8" stroke="#ffffff" stroke-width="1.5"/>
<circle cx="1269.12" cy="309.55" r="6.5" fill="#b8b8b8" stroke="#ffffff" stroke-width="1.5"/>
<circle cx="1288.51" cy="161.46" r="6.5" fill="#b8b8b8" stroke="#ffffff" stroke-width="1.5"/>
<circle cx="1307.91" cy="315.35" r="6.5" fill="#b8b8b8" stroke="#ffffff" stroke-width="1.5"/>
<circle cx="1327.30" cy="356.25" r="6.5" fill="#b8b8b8" stroke="#ffffff" stroke-width="1.5"/>
<circle cx="1346.69" cy="239.61" r="6.5" fill="#b8b8b8" stroke="#ffffff" stroke-width="1.5"/>
<circle cx="1366.08" cy="308.87" r="6.5" fill="#b8b8b8" stroke="#ffffff" stroke-width="1.5"/>
<circle cx="1385.47" cy="159.62" r="6.5" fill="#b8b8b8" stroke="#ffffff" stroke-width="1.5"/>
<circle cx="1404.86" cy="306.62" r="6.5" fill="#b8b8b8" stroke="#ffffff" stroke-width="1.5"/>
<circle cx="1424.26" cy="357.46" r="6.5" fill="#b8b8b8" stroke="#ffffff" stroke-width="1.5"/>
<circle cx="1443.65" cy="239.61" r="6.5" fill="#b8b8b8" stroke="#ffffff" stroke-width="1.5"/>
<circle cx="1463.04" cy="288.69" r="6.5" fill="#b8b8b8" stroke="#ffffff" stroke-width="1.5"/>
<circle cx="1482.43" cy="159.64" r="6.5" fill="#b8b8b8" stroke="#ffffff" stroke-width="1.5"/>
<circle cx="1501.82" cy="302.80" r="6.5" fill="#b8b8b8" stroke="#ffffff" stroke-width="1.5"/>
<circle cx="1521.22" cy="359.56" r="6.5" fill="#b8b8b8" stroke="#ffffff" stroke-width="1.5"/>
<circle cx="1540.61" cy="239.61" r="6.5" fill="#b8b8b8" stroke="#ffffff" stroke-width="1.5"/>
<circle cx="1560.00" cy="292.81" r="6.5" fill="#b8b8b8" stroke="#ffffff" stroke-width="1.5"/>
<circle cx="125.00" cy="170.84" r="7.5" fill="#1f7a3a" stroke="#ffffff" stroke-width="2"/>
<text x="139.00" y="158.84" transform="rotate(-32 139.00 158.84)" font-family="Arial, sans-serif" font-size="12" fill="#1f7a3a">empirical_backoff_v1__ranked_hierarchy</text>
<circle cx="163.78" cy="319.32" r="7.5" fill="#1f7a3a" stroke="#ffffff" stroke-width="2"/>
<text x="177.78" y="307.32" transform="rotate(-32 177.78 307.32)" font-family="Arial, sans-serif" font-size="12" fill="#1f7a3a">empirical_backoff_v1__session_focus</text>
<circle cx="221.96" cy="356.48" r="7.5" fill="#1f7a3a" stroke="#ffffff" stroke-width="2"/>
<text x="235.96" y="344.48" transform="rotate(-32 235.96 344.48)" font-family="Arial, sans-serif" font-size="12" fill="#1f7a3a">empirical_backoff_v1__price_delta_focus</text>
<circle cx="377.09" cy="356.74" r="7.5" fill="#1f7a3a" stroke="#ffffff" stroke-width="2"/>
<text x="391.09" y="344.74" transform="rotate(-32 391.09 344.74)" font-family="Arial, sans-serif" font-size="12" fill="#1f7a3a">empirical_backoff_v1__price_delta_focus</text>
<circle cx="629.19" cy="356.78" r="7.5" fill="#1f7a3a" stroke="#ffffff" stroke-width="2"/>
<text x="643.19" y="344.78" transform="rotate(-32 643.19 344.78)" font-family="Arial, sans-serif" font-size="12" fill="#1f7a3a">empirical_backoff_v1__price_delta_focus</text>
<circle cx="881.28" cy="690.38" r="7.5" fill="#1f7a3a" stroke="#ffffff" stroke-width="2"/>
<text x="895.28" y="678.38" transform="rotate(-32 895.28 678.38)" font-family="Arial, sans-serif" font-size="12" fill="#1f7a3a">empirical_backoff_v1__escalated_blend</text>
<circle cx="125.00" cy="822.00" r="6.5" fill="#b8b8b8" stroke="#ffffff" stroke-width="1.5"/>
<text x="141.00" y="826.00" font-family="Arial, sans-serif" font-size="12" fill="#363636">discarded</text>
<circle cx="257.00" cy="822.00" r="7.0" fill="#1f7a3a" stroke="#ffffff" stroke-width="2"/>
<text x="273.00" y="826.00" font-family="Arial, sans-serif" font-size="12" fill="#363636">kept</text>
<line x1="345.00" y1="822.00" x2="393.00" y2="822.00" stroke="#1f7a3a" stroke-width="3.5"/>
<text x="403.00" y="826.00" font-family="Arial, sans-serif" font-size="12" fill="#363636">running best</text>
<line x1="517.00" y1="816.00" x2="529.00" y2="828.00" stroke="#5f5f5f" stroke-width="2"/>
<line x1="529.00" y1="816.00" x2="517.00" y2="828.00" stroke="#5f5f5f" stroke-width="2"/>
<text x="539.00" y="826.00" font-family="Arial, sans-serif" font-size="12" fill="#363636">crash</text>
<text x="1560.00" y="838.00" text-anchor="end" font-family="Arial, sans-serif" font-size="12" fill="#555555">Experiments 75 | keeps 6 | discards 69 | crashes 0</text>
<text x="800.0" y="872" text-anchor="middle" font-family="Arial, sans-serif" font-size="14" fill="#363636">experiment number</text>
<text x="36" y="450.0" transform="rotate(-90 36 450.0)" text-anchor="middle" font-family="Arial, sans-serif" font-size="14" fill="#363636">BTC5 market-model loss (lower is better)</text>
</svg>
