<svg xmlns="http://www.w3.org/2000/svg" width="1280" height="780" viewBox="0 0 1280 780">
<defs>
  <linearGradient id="bg" x1="0" x2="1" y1="0" y2="1">
    <stop offset="0%" stop-color="#07111f"/>
    <stop offset="100%" stop-color="#10263f"/>
  </linearGradient>
  <linearGradient id="forecastLine" x1="0" x2="1" y1="0" y2="0">
    <stop offset="0%" stop-color="#4df0c7"/>
    <stop offset="100%" stop-color="#6bf1ff"/>
  </linearGradient>
  <linearGradient id="fillLine" x1="0" x2="1" y1="0" y2="0">
    <stop offset="0%" stop-color="#ffaf45"/>
    <stop offset="100%" stop-color="#ffd36a"/>
  </linearGradient>
</defs>
<rect width="1280" height="780" fill="url(#bg)"/>
<circle cx="1130" cy="90" r="160" fill="#18314d" opacity="0.35"/>
<circle cx="180" cy="660" r="120" fill="#0c3b49" opacity="0.22"/>
<text x="80" y="78" font-family="'Trebuchet MS','Segoe UI',sans-serif" font-size="34" font-weight="700" fill="#f7fafc">BTC5 Public Improvement Velocity</text>
<text x="80" y="116" font-family="'Trebuchet MS','Segoe UI',sans-serif" font-size="17" fill="#bfd0ea">Generated 2026-03-11 10:17 UTC from runtime truth and the freshest public BTC5 forecast artifact.</text>
<rect x="900" y="250" width="320" height="390" rx="24" fill="#0d1b2e" opacity="0.92" stroke="#27496d"/>
<rect x="80" y="144" width="250" height="88" rx="22" fill="#0b1d2e" opacity="0.96" stroke="#4df0c7" stroke-width="2"/>
<text x="104" y="172" font-family="'Trebuchet MS','Segoe UI',sans-serif" font-size="12" fill="#a8c0dc">PUBLIC FORECAST ARR</text>
<text x="104" y="202" font-family="'Trebuchet MS','Segoe UI',sans-serif" font-size="28" font-weight="700" fill="#f7fafc">4,000%+</text>
<text x="104" y="222" font-family="'Trebuchet MS','Segoe UI',sans-serif" font-size="12" fill="#9cb3ce">Conservative headline for README</text>
<rect x="350" y="144" width="250" height="88" rx="22" fill="#11192e" opacity="0.96" stroke="#58b5ff" stroke-width="2"/>
<text x="374" y="172" font-family="'Trebuchet MS','Segoe UI',sans-serif" font-size="12" fill="#a8c0dc">RAW SELECTED FORECAST</text>
<text x="374" y="202" font-family="'Trebuchet MS','Segoe UI',sans-serif" font-size="28" font-weight="700" fill="#f7fafc">1.75M%</text>
<text x="374" y="222" font-family="'Trebuchet MS','Segoe UI',sans-serif" font-size="12" fill="#9cb3ce">Freshest selected BTC5 forecast artifact</text>
<rect x="620" y="144" width="250" height="88" rx="22" fill="#171621" opacity="0.96" stroke="#ffaf45" stroke-width="2"/>
<text x="644" y="172" font-family="'Trebuchet MS','Segoe UI',sans-serif" font-size="12" fill="#a8c0dc">LIVE SLEEVE RUN-RATE</text>
<text x="644" y="202" font-family="'Trebuchet MS','Segoe UI',sans-serif" font-size="28" font-weight="700" fill="#f7fafc">-1.5k%</text>
<text x="644" y="222" font-family="'Trebuchet MS','Segoe UI',sans-serif" font-size="12" fill="#9cb3ce">Trailing BTC5 live-fill annualization</text>
<line x1="100" y1="270.00" x2="860" y2="270.00" stroke="#28425e" stroke-width="1"/>
<line x1="100" y1="337.50" x2="860" y2="337.50" stroke="#28425e" stroke-width="1"/>
<line x1="100" y1="405.00" x2="860" y2="405.00" stroke="#28425e" stroke-width="1"/>
<line x1="100" y1="472.50" x2="860" y2="472.50" stroke="#28425e" stroke-width="1"/>
<line x1="100" y1="540.00" x2="860" y2="540.00" stroke="#28425e" stroke-width="1"/>
<rect x="100" y="270" width="760" height="270" rx="18" fill="#081423" opacity="0.45" stroke="#29405d"/>
<polyline points="100.00,444.37 108.72,445.67 112.41,436.32 138.00,388.63 148.31,379.67 533.02,397.33 598.82,270.00 603.32,520.92 622.95,540.00 860.00,539.18" fill="none" stroke="url(#forecastLine)" stroke-width="4" stroke-linecap="round" stroke-linejoin="round"/>
<circle cx="100.00" cy="444.37" r="6" fill="#07111f" stroke="#72fff0" stroke-width="3"/>
<circle cx="108.72" cy="445.67" r="6" fill="#07111f" stroke="#72fff0" stroke-width="3"/>
<circle cx="112.41" cy="436.32" r="6" fill="#07111f" stroke="#72fff0" stroke-width="3"/>
<circle cx="138.00" cy="388.63" r="6" fill="#07111f" stroke="#72fff0" stroke-width="3"/>
<circle cx="148.31" cy="379.67" r="6" fill="#07111f" stroke="#72fff0" stroke-width="3"/>
<circle cx="533.02" cy="397.33" r="6" fill="#07111f" stroke="#72fff0" stroke-width="3"/>
<circle cx="598.82" cy="270.00" r="6" fill="#07111f" stroke="#72fff0" stroke-width="3"/>
<circle cx="603.32" cy="520.92" r="6" fill="#07111f" stroke="#72fff0" stroke-width="3"/>
<circle cx="622.95" cy="540.00" r="6" fill="#07111f" stroke="#72fff0" stroke-width="3"/>
<circle cx="860.00" cy="539.18" r="6" fill="#07111f" stroke="#72fff0" stroke-width="3"/>
<polyline points="100.00,451.96 108.72,446.09 112.41,442.17 138.00,438.26 148.31,430.43 533.02,301.30 598.82,283.70 603.32,281.74 622.95,270.00 860.00,270.00" fill="none" stroke="url(#fillLine)" stroke-width="3" stroke-dasharray="10 8" stroke-linecap="round" stroke-linejoin="round"/>
<circle cx="100.00" cy="451.96" r="4" fill="#ffcf71"/>
<circle cx="108.72" cy="446.09" r="4" fill="#ffcf71"/>
<circle cx="112.41" cy="442.17" r="4" fill="#ffcf71"/>
<circle cx="138.00" cy="438.26" r="4" fill="#ffcf71"/>
<circle cx="148.31" cy="430.43" r="4" fill="#ffcf71"/>
<circle cx="533.02" cy="301.30" r="4" fill="#ffcf71"/>
<circle cx="598.82" cy="283.70" r="4" fill="#ffcf71"/>
<circle cx="603.32" cy="281.74" r="4" fill="#ffcf71"/>
<circle cx="622.95" cy="270.00" r="4" fill="#ffcf71"/>
<circle cx="860.00" cy="270.00" r="4" fill="#ffcf71"/>
<line x1="100.00" y1="540" x2="100.00" y2="550" stroke="#89a6ca"/>
<text x="100.00" y="574" text-anchor="middle" font-family="'Trebuchet MS','Segoe UI',sans-serif" font-size="13" fill="#d7e4f5">18:44</text>
<line x1="108.72" y1="540" x2="108.72" y2="550" stroke="#89a6ca"/>
<text x="108.72" y="574" text-anchor="middle" font-family="'Trebuchet MS','Segoe UI',sans-serif" font-size="13" fill="#d7e4f5">19:05</text>
<line x1="112.41" y1="540" x2="112.41" y2="550" stroke="#89a6ca"/>
<text x="112.41" y="574" text-anchor="middle" font-family="'Trebuchet MS','Segoe UI',sans-serif" font-size="13" fill="#d7e4f5">19:15</text>
<line x1="138.00" y1="540" x2="138.00" y2="550" stroke="#89a6ca"/>
<text x="138.00" y="574" text-anchor="middle" font-family="'Trebuchet MS','Segoe UI',sans-serif" font-size="13" fill="#d7e4f5">20:19</text>
<line x1="148.31" y1="540" x2="148.31" y2="550" stroke="#89a6ca"/>
<text x="148.31" y="574" text-anchor="middle" font-family="'Trebuchet MS','Segoe UI',sans-serif" font-size="13" fill="#d7e4f5">20:44</text>
<line x1="533.02" y1="540" x2="533.02" y2="550" stroke="#89a6ca"/>
<text x="533.02" y="574" text-anchor="middle" font-family="'Trebuchet MS','Segoe UI',sans-serif" font-size="13" fill="#d7e4f5">12:44</text>
<line x1="598.82" y1="540" x2="598.82" y2="550" stroke="#89a6ca"/>
<text x="598.82" y="574" text-anchor="middle" font-family="'Trebuchet MS','Segoe UI',sans-serif" font-size="13" fill="#d7e4f5">15:29</text>
<line x1="603.32" y1="540" x2="603.32" y2="550" stroke="#89a6ca"/>
<text x="603.32" y="574" text-anchor="middle" font-family="'Trebuchet MS','Segoe UI',sans-serif" font-size="13" fill="#d7e4f5">15:40</text>
<line x1="622.95" y1="540" x2="622.95" y2="550" stroke="#89a6ca"/>
<text x="622.95" y="574" text-anchor="middle" font-family="'Trebuchet MS','Segoe UI',sans-serif" font-size="13" fill="#d7e4f5">16:29</text>
<line x1="860.00" y1="540" x2="860.00" y2="550" stroke="#89a6ca"/>
<text x="860.00" y="574" text-anchor="middle" font-family="'Trebuchet MS','Segoe UI',sans-serif" font-size="13" fill="#d7e4f5">02:20</text>
<text x="82" y="174.00" text-anchor="end" font-family="'Trebuchet MS','Segoe UI',sans-serif" font-size="13" fill="#c6dbf4">9.63M%</text>
<text x="82" y="264.00" text-anchor="end" font-family="'Trebuchet MS','Segoe UI',sans-serif" font-size="13" fill="#c6dbf4">7.65M%</text>
<text x="82" y="354.00" text-anchor="end" font-family="'Trebuchet MS','Segoe UI',sans-serif" font-size="13" fill="#c6dbf4">5.68M%</text>
<text x="82" y="444.00" text-anchor="end" font-family="'Trebuchet MS','Segoe UI',sans-serif" font-size="13" fill="#c6dbf4">3.70M%</text>
<text x="82" y="534.00" text-anchor="end" font-family="'Trebuchet MS','Segoe UI',sans-serif" font-size="13" fill="#c6dbf4">1.73M%</text>
<text x="878" y="174.00" font-family="'Trebuchet MS','Segoe UI',sans-serif" font-size="13" fill="#ffd8a8">138 fills</text>
<text x="878" y="264.00" font-family="'Trebuchet MS','Segoe UI',sans-serif" font-size="13" fill="#ffd8a8">104 fills</text>
<text x="878" y="354.00" font-family="'Trebuchet MS','Segoe UI',sans-serif" font-size="13" fill="#ffd8a8">69 fills</text>
<text x="878" y="444.00" font-family="'Trebuchet MS','Segoe UI',sans-serif" font-size="13" fill="#ffd8a8">34 fills</text>
<text x="878" y="534.00" font-family="'Trebuchet MS','Segoe UI',sans-serif" font-size="13" fill="#ffd8a8">0 fills</text>
<rect x="100" y="246" width="18" height="4" rx="2" fill="#5cf2df"/>
<text x="128" y="254" font-family="'Trebuchet MS','Segoe UI',sans-serif" font-size="14" fill="#e8f2ff">Best-package forecast ARR</text>
<rect x="360" y="246" width="18" height="4" rx="2" fill="#ffc25f"/>
<text x="388" y="254" font-family="'Trebuchet MS','Segoe UI',sans-serif" font-size="14" fill="#e8f2ff">Live-filled row growth</text>
<text x="926" y="304" font-family="'Trebuchet MS','Segoe UI',sans-serif" font-size="13" fill="#91a8c7">PUBLIC FORECAST ARR</text>
<text x="926" y="326" font-family="'Trebuchet MS','Segoe UI',sans-serif" font-size="18" fill="#f8fbff">4,000%+</text>
<text x="926" y="354" font-family="'Trebuchet MS','Segoe UI',sans-serif" font-size="13" fill="#91a8c7">RAW SELECTED FORECAST</text>
<text x="926" y="376" font-family="'Trebuchet MS','Segoe UI',sans-serif" font-size="18" fill="#f8fbff">1.75M%</text>
<text x="926" y="404" font-family="'Trebuchet MS','Segoe UI',sans-serif" font-size="13" fill="#91a8c7">LIVE SLEEVE RUN-RATE</text>
<text x="926" y="426" font-family="'Trebuchet MS','Segoe UI',sans-serif" font-size="18" fill="#f8fbff">-1.5k%</text>
<text x="926" y="454" font-family="'Trebuchet MS','Segoe UI',sans-serif" font-size="13" fill="#91a8c7">CONFIDENCE</text>
<text x="926" y="476" font-family="'Trebuchet MS','Segoe UI',sans-serif" font-size="18" fill="#f8fbff">high</text>
<text x="926" y="504" font-family="'Trebuchet MS','Segoe UI',sans-serif" font-size="13" fill="#91a8c7">FORECAST ARR GAIN</text>
<text x="926" y="526" font-family="'Trebuchet MS','Segoe UI',sans-serif" font-size="18" fill="#f8fbff">2.38M%</text>
<text x="926" y="554" font-family="'Trebuchet MS','Segoe UI',sans-serif" font-size="13" fill="#91a8c7">WINDOW</text>
<text x="926" y="576" font-family="'Trebuchet MS','Segoe UI',sans-serif" font-size="18" fill="#f8fbff">31.61h</text>
<text x="926" y="604" font-family="'Trebuchet MS','Segoe UI',sans-serif" font-size="13" fill="#91a8c7">FILL GROWTH</text>
<text x="926" y="626" font-family="'Trebuchet MS','Segoe UI',sans-serif" font-size="18" fill="#f8fbff">+93 rows</text>
<text x="926" y="654" font-family="'Trebuchet MS','Segoe UI',sans-serif" font-size="13" fill="#91a8c7">DEPLOY RECOMMENDATION</text>
<text x="926" y="676" font-family="'Trebuchet MS','Segoe UI',sans-serif" font-size="18" fill="#f8fbff">promote</text>
<text x="80" y="630" font-family="'Trebuchet MS','Segoe UI',sans-serif" font-size="13" fill="#c3d6ee">Metric: Best-package BTC5 continuation ARR trend | Window: 2026-03-09 18:44 UTC -&gt; 2026-03-11 02:20 UTC (31.61h)</text>
<text x="80" y="650" font-family="'Trebuchet MS','Segoe UI',sans-serif" font-size="13" fill="#c3d6ee">Confidence: high | Sample: 12 live fills in the realized sleeve window; 132 validation live-filled rows in the</text>
<text x="80" y="670" font-family="'Trebuchet MS','Segoe UI',sans-serif" font-size="13" fill="#c3d6ee">selected forecast; 393 observed BTC5 windows in the selected forecast artifact | Source:</text>
<text x="80" y="690" font-family="'Trebuchet MS','Segoe UI',sans-serif" font-size="13" fill="#c3d6ee">reports/btc5_autoresearch/latest.json</text>
<text x="80" y="710" font-family="'Trebuchet MS','Segoe UI',sans-serif" font-size="13" fill="#c3d6ee">Source class: forecast loop history + BTC5 window rows</text>
</svg>
