<svg xmlns="http://www.w3.org/2000/svg" width="1600" height="860" viewBox="0 0 1600 860">
<rect width="100%" height="100%" fill="#f2f2f2"/>
<text x="800.0" y="28" text-anchor="middle" font-family="Arial, sans-serif" font-size="16" fill="#222">Calibration Lane Progress: 1 Runs, 1 Kept High-Water Marks</text>
<line x1="110" y1="770.00" x2="1576" y2="770.00" stroke="#d7d7d7" stroke-width="1"/>
<text x="100" y="774.00" text-anchor="end" font-family="Arial, sans-serif" font-size="12" fill="#555">-0.286</text>
<line x1="110" y1="626.00" x2="1576" y2="626.00" stroke="#d7d7d7" stroke-width="1"/>
<text x="100" y="630.00" text-anchor="end" font-family="Arial, sans-serif" font-size="12" fill="#555">-0.266</text>
<line x1="110" y1="482.00" x2="1576" y2="482.00" stroke="#d7d7d7" stroke-width="1"/>
<text x="100" y="486.00" text-anchor="end" font-family="Arial, sans-serif" font-size="12" fill="#555">-0.246</text>
<line x1="110" y1="338.00" x2="1576" y2="338.00" stroke="#d7d7d7" stroke-width="1"/>
<text x="100" y="342.00" text-anchor="end" font-family="Arial, sans-serif" font-size="12" fill="#555">-0.226</text>
<line x1="110" y1="194.00" x2="1576" y2="194.00" stroke="#d7d7d7" stroke-width="1"/>
<text x="100" y="198.00" text-anchor="end" font-family="Arial, sans-serif" font-size="12" fill="#555">-0.206</text>
<line x1="110" y1="50.00" x2="1576" y2="50.00" stroke="#d7d7d7" stroke-width="1"/>
<text x="100" y="54.00" text-anchor="end" font-family="Arial, sans-serif" font-size="12" fill="#555">-0.186</text>
<line x1="843.00" y1="50" x2="843.00" y2="770" stroke="#e1e1e1" stroke-width="1"/>
<text x="843.00" y="794" text-anchor="middle" font-family="Arial, sans-serif" font-size="12" fill="#555">1</text>
<line x1="110" y1="770" x2="1576" y2="770" stroke="#555" stroke-width="1.5"/>
<line x1="110" y1="50" x2="110" y2="770" stroke="#555" stroke-width="1.5"/>
<polyline points="843.00,410.00" fill="none" stroke="#0d7a35" stroke-width="3" stroke-linejoin="round"/>
<circle cx="843.00" cy="410.00" r="7.5" fill="#0d7a35" stroke="#ffffff" stroke-width="2"/>
<text x="853.00" y="400.00" font-family="Arial, sans-serif" font-size="11" fill="#222">rolling_100</text>
<text x="800.0" y="836" text-anchor="middle" font-family="Arial, sans-serif" font-size="13" fill="#444">Run Number</text>
<text x="30" y="430.0" transform="rotate(-90 30 430.0)" text-anchor="middle" font-family="Arial, sans-serif" font-size="13" fill="#444">Benchmark Score (higher is better)</text>
</svg>